<?xml version="1.0" encoding="UTF-8" standalone="no"?>
<!DOCTYPE svg PUBLIC "-//W3C//DTD SVG 1.1//EN"
 "http://www.w3.org/Graphics/SVG/1.1/DTD/svg11.dtd">
<!-- Generated by graphviz version 2.43.0 (0)
 -->
<!-- Title: snakemake_dag Pages: 1 -->
<svg width="200pt" height="116pt"
 viewBox="0.00 0.00 200.00 116.00" xmlns="http://www.w3.org/2000/svg" xmlns:xlink="http://www.w3.org/1999/xlink">
<g id="graph0" class="graph" transform="scale(1 1) rotate(0) translate(4 112)">
<title>snakemake_dag</title>
<polygon fill="white" stroke="transparent" points="-4,4 -4,-112 196,-112 196,4 -4,4"/>
<!-- 0 -->
<g id="node1" class="node">
<title>0</title>
<path fill="none" stroke="#59d856" stroke-width="2" d="M110.5,-36C110.5,-36 80.5,-36 80.5,-36 74.5,-36 68.5,-30 68.5,-24 68.5,-24 68.5,-12 68.5,-12 68.5,-6 74.5,0 80.5,0 80.5,0 110.5,0 110.5,0 116.5,0 122.5,-6 122.5,-12 122.5,-12 122.5,-24 122.5,-24 122.5,-30 116.5,-36 110.5,-36"/>
<text text-anchor="middle" x="95.5" y="-15.5" font-family="sans" font-size="10.00">all</text>
</g>
<!-- 1 -->
<g id="node2" class="node">
<title>1</title>
<path fill="none" stroke="#d8ac56" stroke-width="2" d="M75,-108C75,-108 12,-108 12,-108 6,-108 0,-102 0,-96 0,-96 0,-84 0,-84 0,-78 6,-72 12,-72 12,-72 75,-72 75,-72 81,-72 87,-78 87,-84 87,-84 87,-96 87,-96 87,-102 81,-108 75,-108"/>
<text text-anchor="middle" x="43.5" y="-93" font-family="sans" font-size="10.00">get_tmf</text>
<text text-anchor="middle" x="43.5" y="-82" font-family="sans" font-size="10.00">area: guaviare</text>
</g>
<!-- 1&#45;&gt;0 -->
<g id="edge1" class="edge">
<title>1&#45;&gt;0</title>
<path fill="none" stroke="grey" stroke-width="2" d="M56.35,-71.7C62.53,-63.39 70.04,-53.28 76.82,-44.14"/>
<polygon fill="grey" stroke="grey" stroke-width="2" points="79.64,-46.22 82.79,-36.1 74.02,-42.04 79.64,-46.22"/>
</g>
<!-- 2 -->
<g id="node3" class="node">
<title>2</title>
<path fill="none" stroke="#56a9d8" stroke-width="2" stroke-dasharray="5,2" d="M180,-108C180,-108 117,-108 117,-108 111,-108 105,-102 105,-96 105,-96 105,-84 105,-84 105,-78 111,-72 117,-72 117,-72 180,-72 180,-72 186,-72 192,-78 192,-84 192,-84 192,-96 192,-96 192,-102 186,-108 180,-108"/>
<text text-anchor="middle" x="148.5" y="-93" font-family="sans" font-size="10.00">get_modis</text>
<text text-anchor="middle" x="148.5" y="-82" font-family="sans" font-size="10.00">area: guaviare</text>
</g>
<!-- 2&#45;&gt;0 -->
<g id="edge2" class="edge">
<title>2&#45;&gt;0</title>
<path fill="none" stroke="grey" stroke-width="2" d="M135.4,-71.7C129.11,-63.39 121.45,-53.28 114.54,-44.14"/>
<polygon fill="grey" stroke="grey" stroke-width="2" points="117.28,-41.96 108.45,-36.1 111.7,-46.19 117.28,-41.96"/>
</g>
</g>
</svg>
