<?xml version="1.0" encoding="UTF-8" standalone="no"?>
<!DOCTYPE svg PUBLIC "-//W3C//DTD SVG 1.1//EN"
 "http://www.w3.org/Graphics/SVG/1.1/DTD/svg11.dtd">
<!-- Generated by graphviz version 2.43.0 (0)
 -->
<!-- Title: snakemake_dag Pages: 1 -->
<svg width="301pt" height="260pt"
 viewBox="0.00 0.00 300.50 260.00" xmlns="http://www.w3.org/2000/svg" xmlns:xlink="http://www.w3.org/1999/xlink">
<g id="graph0" class="graph" transform="scale(1 1) rotate(0) translate(4 256)">
<title>snakemake_dag</title>
<polygon fill="white" stroke="transparent" points="-4,4 -4,-256 296.5,-256 296.5,4 -4,4"/>
<!-- 0 -->
<g id="node1" class="node">
<title>0</title>
<path fill="none" stroke="#56a9d8" stroke-width="2" d="M164.5,-36C164.5,-36 134.5,-36 134.5,-36 128.5,-36 122.5,-30 122.5,-24 122.5,-24 122.5,-12 122.5,-12 122.5,-6 128.5,0 134.5,0 134.5,0 164.5,0 164.5,0 170.5,0 176.5,-6 176.5,-12 176.5,-12 176.5,-24 176.5,-24 176.5,-30 170.5,-36 164.5,-36"/>
<text text-anchor="middle" x="149.5" y="-15.5" font-family="sans" font-size="10.00">all</text>
</g>
<!-- 1 -->
<g id="node2" class="node">
<title>1</title>
<path fill="none" stroke="#56d8a9" stroke-width="2" d="M128.5,-108C128.5,-108 84.5,-108 84.5,-108 78.5,-108 72.5,-102 72.5,-96 72.5,-96 72.5,-84 72.5,-84 72.5,-78 78.5,-72 84.5,-72 84.5,-72 128.5,-72 128.5,-72 134.5,-72 140.5,-78 140.5,-84 140.5,-84 140.5,-96 140.5,-96 140.5,-102 134.5,-108 128.5,-108"/>
<text text-anchor="middle" x="106.5" y="-87.5" font-family="sans" font-size="10.00">get_modis</text>
</g>
<!-- 1&#45;&gt;0 -->
<g id="edge1" class="edge">
<title>1&#45;&gt;0</title>
<path fill="none" stroke="grey" stroke-width="2" d="M117.13,-71.7C122.13,-63.56 128.19,-53.69 133.71,-44.7"/>
<polygon fill="grey" stroke="grey" stroke-width="2" points="136.74,-46.46 138.99,-36.1 130.78,-42.79 136.74,-46.46"/>
</g>
<!-- 2 -->
<g id="node3" class="node">
<title>2</title>
<path fill="none" stroke="#d8ac56" stroke-width="2" d="M167,-180C167,-180 132,-180 132,-180 126,-180 120,-174 120,-168 120,-168 120,-156 120,-156 120,-150 126,-144 132,-144 132,-144 167,-144 167,-144 173,-144 179,-150 179,-156 179,-156 179,-168 179,-168 179,-174 173,-180 167,-180"/>
<text text-anchor="middle" x="149.5" y="-159.5" font-family="sans" font-size="10.00">get_area</text>
</g>
<!-- 2&#45;&gt;1 -->
<g id="edge3" class="edge">
<title>2&#45;&gt;1</title>
<path fill="none" stroke="grey" stroke-width="2" d="M138.87,-143.7C133.87,-135.56 127.81,-125.69 122.29,-116.7"/>
<polygon fill="grey" stroke="grey" stroke-width="2" points="125.22,-114.79 117.01,-108.1 119.26,-118.46 125.22,-114.79"/>
</g>
<!-- 6 -->
<g id="node7" class="node">
<title>6</title>
<path fill="none" stroke="#d85656" stroke-width="2" d="M214,-108C214,-108 171,-108 171,-108 165,-108 159,-102 159,-96 159,-96 159,-84 159,-84 159,-78 165,-72 171,-72 171,-72 214,-72 214,-72 220,-72 226,-78 226,-84 226,-84 226,-96 226,-96 226,-102 220,-108 214,-108"/>
<text text-anchor="middle" x="192.5" y="-87.5" font-family="sans" font-size="10.00">get_chirps</text>
</g>
<!-- 2&#45;&gt;6 -->
<g id="edge7" class="edge">
<title>2&#45;&gt;6</title>
<path fill="none" stroke="grey" stroke-width="2" d="M160.13,-143.7C165.13,-135.56 171.19,-125.69 176.71,-116.7"/>
<polygon fill="grey" stroke="grey" stroke-width="2" points="179.74,-118.46 181.99,-108.1 173.78,-114.79 179.74,-118.46"/>
</g>
<!-- 3 -->
<g id="node4" class="node">
<title>3</title>
<path fill="none" stroke="#afd856" stroke-width="2" d="M77,-252C77,-252 12,-252 12,-252 6,-252 0,-246 0,-240 0,-240 0,-228 0,-228 0,-222 6,-216 12,-216 12,-216 77,-216 77,-216 83,-216 89,-222 89,-228 89,-228 89,-240 89,-240 89,-246 83,-252 77,-252"/>
<text text-anchor="middle" x="44.5" y="-237" font-family="sans" font-size="10.00">get_gadm</text>
<text text-anchor="middle" x="44.5" y="-226" font-family="sans" font-size="10.00">area: Guaviare</text>
</g>
<!-- 3&#45;&gt;2 -->
<g id="edge4" class="edge">
<title>3&#45;&gt;2</title>
<path fill="none" stroke="grey" stroke-width="2" d="M70.19,-215.88C83.79,-206.81 100.67,-195.55 115.36,-185.76"/>
<polygon fill="grey" stroke="grey" stroke-width="2" points="117.34,-188.65 123.72,-180.19 113.45,-182.82 117.34,-188.65"/>
</g>
<!-- 4 -->
<g id="node5" class="node">
<title>4</title>
<path fill="none" stroke="#afd856" stroke-width="2" d="M180,-252C180,-252 119,-252 119,-252 113,-252 107,-246 107,-240 107,-240 107,-228 107,-228 107,-222 113,-216 119,-216 119,-216 180,-216 180,-216 186,-216 192,-222 192,-228 192,-228 192,-240 192,-240 192,-246 186,-252 180,-252"/>
<text text-anchor="middle" x="149.5" y="-237" font-family="sans" font-size="10.00">get_gadm</text>
<text text-anchor="middle" x="149.5" y="-226" font-family="sans" font-size="10.00">area: Caquetá</text>
</g>
<!-- 4&#45;&gt;2 -->
<g id="edge5" class="edge">
<title>4&#45;&gt;2</title>
<path fill="none" stroke="grey" stroke-width="2" d="M149.5,-215.7C149.5,-207.98 149.5,-198.71 149.5,-190.11"/>
<polygon fill="grey" stroke="grey" stroke-width="2" points="153,-190.1 149.5,-180.1 146,-190.1 153,-190.1"/>
</g>
<!-- 5 -->
<g id="node6" class="node">
<title>5</title>
<path fill="none" stroke="#afd856" stroke-width="2" d="M280.5,-252C280.5,-252 222.5,-252 222.5,-252 216.5,-252 210.5,-246 210.5,-240 210.5,-240 210.5,-228 210.5,-228 210.5,-222 216.5,-216 222.5,-216 222.5,-216 280.5,-216 280.5,-216 286.5,-216 292.5,-222 292.5,-228 292.5,-228 292.5,-240 292.5,-240 292.5,-246 286.5,-252 280.5,-252"/>
<text text-anchor="middle" x="251.5" y="-237" font-family="sans" font-size="10.00">get_gadm</text>
<text text-anchor="middle" x="251.5" y="-226" font-family="sans" font-size="10.00">area: Guainía</text>
</g>
<!-- 5&#45;&gt;2 -->
<g id="edge6" class="edge">
<title>5&#45;&gt;2</title>
<path fill="none" stroke="grey" stroke-width="2" d="M226.55,-215.88C213.46,-206.89 197.24,-195.76 183.06,-186.03"/>
<polygon fill="grey" stroke="grey" stroke-width="2" points="184.77,-182.96 174.55,-180.19 180.81,-188.73 184.77,-182.96"/>
</g>
<!-- 6&#45;&gt;0 -->
<g id="edge2" class="edge">
<title>6&#45;&gt;0</title>
<path fill="none" stroke="grey" stroke-width="2" d="M181.87,-71.7C176.87,-63.56 170.81,-53.69 165.29,-44.7"/>
<polygon fill="grey" stroke="grey" stroke-width="2" points="168.22,-42.79 160.01,-36.1 162.26,-46.46 168.22,-42.79"/>
</g>
</g>
</svg>
