<?xml version="1.0" encoding="UTF-8" standalone="no"?>
<!DOCTYPE svg PUBLIC "-//W3C//DTD SVG 1.1//EN"
 "http://www.w3.org/Graphics/SVG/1.1/DTD/svg11.dtd">
<!-- Generated by graphviz version 2.43.0 (0)
 -->
<!-- Title: snakemake_dag Pages: 1 -->
<svg width="406pt" height="188pt"
 viewBox="0.00 0.00 406.00 188.00" xmlns="http://www.w3.org/2000/svg" xmlns:xlink="http://www.w3.org/1999/xlink">
<g id="graph0" class="graph" transform="scale(1 1) rotate(0) translate(4 184)">
<title>snakemake_dag</title>
<polygon fill="white" stroke="transparent" points="-4,4 -4,-184 402,-184 402,4 -4,4"/>
<!-- 0 -->
<g id="node1" class="node">
<title>0</title>
<path fill="none" stroke="#56a9d8" stroke-width="2" d="M214,-36C214,-36 184,-36 184,-36 178,-36 172,-30 172,-24 172,-24 172,-12 172,-12 172,-6 178,0 184,0 184,0 214,0 214,0 220,0 226,-6 226,-12 226,-12 226,-24 226,-24 226,-30 220,-36 214,-36"/>
<text text-anchor="middle" x="199" y="-15.5" font-family="sans" font-size="10.00">all</text>
</g>
<!-- 1 -->
<g id="node2" class="node">
<title>1</title>
<path fill="none" stroke="#d8ac56" stroke-width="2" stroke-dasharray="5,2" d="M74,-108C74,-108 12,-108 12,-108 6,-108 0,-102 0,-96 0,-96 0,-84 0,-84 0,-78 6,-72 12,-72 12,-72 74,-72 74,-72 80,-72 86,-78 86,-84 86,-84 86,-96 86,-96 86,-102 80,-108 74,-108"/>
<text text-anchor="middle" x="43" y="-93" font-family="sans" font-size="10.00">crop_chirps</text>
<text text-anchor="middle" x="43" y="-82" font-family="sans" font-size="10.00">area: capricho</text>
</g>
<!-- 1&#45;&gt;0 -->
<g id="edge1" class="edge">
<title>1&#45;&gt;0</title>
<path fill="none" stroke="grey" stroke-width="2" d="M81.16,-71.88C106.01,-60.73 138.22,-46.27 162.69,-35.29"/>
<polygon fill="grey" stroke="grey" stroke-width="2" points="164.3,-38.41 171.99,-31.12 161.43,-32.02 164.3,-38.41"/>
</g>
<!-- 2 -->
<g id="node3" class="node">
<title>2</title>
<path fill="none" stroke="#d85656" stroke-width="2" stroke-dasharray="5,2" d="M64.5,-180C64.5,-180 21.5,-180 21.5,-180 15.5,-180 9.5,-174 9.5,-168 9.5,-168 9.5,-156 9.5,-156 9.5,-150 15.5,-144 21.5,-144 21.5,-144 64.5,-144 64.5,-144 70.5,-144 76.5,-150 76.5,-156 76.5,-156 76.5,-168 76.5,-168 76.5,-174 70.5,-180 64.5,-180"/>
<text text-anchor="middle" x="43" y="-159.5" font-family="sans" font-size="10.00">get_chirps</text>
</g>
<!-- 2&#45;&gt;1 -->
<g id="edge5" class="edge">
<title>2&#45;&gt;1</title>
<path fill="none" stroke="grey" stroke-width="2" d="M43,-143.7C43,-135.98 43,-126.71 43,-118.11"/>
<polygon fill="grey" stroke="grey" stroke-width="2" points="46.5,-118.1 43,-108.1 39.5,-118.1 46.5,-118.1"/>
</g>
<!-- 3 -->
<g id="node4" class="node">
<title>3</title>
<path fill="none" stroke="#59d856" stroke-width="2" stroke-dasharray="5,2" d="M178,-108C178,-108 116,-108 116,-108 110,-108 104,-102 104,-96 104,-96 104,-84 104,-84 104,-78 110,-72 116,-72 116,-72 178,-72 178,-72 184,-72 190,-78 190,-84 190,-84 190,-96 190,-96 190,-102 184,-108 178,-108"/>
<text text-anchor="middle" x="147" y="-93" font-family="sans" font-size="10.00">get_chelsa</text>
<text text-anchor="middle" x="147" y="-82" font-family="sans" font-size="10.00">area: capricho</text>
</g>
<!-- 3&#45;&gt;0 -->
<g id="edge2" class="edge">
<title>3&#45;&gt;0</title>
<path fill="none" stroke="grey" stroke-width="2" d="M159.85,-71.7C166.03,-63.39 173.54,-53.28 180.32,-44.14"/>
<polygon fill="grey" stroke="grey" stroke-width="2" points="183.14,-46.22 186.29,-36.1 177.52,-42.04 183.14,-46.22"/>
</g>
<!-- 4 -->
<g id="node5" class="node">
<title>4</title>
<path fill="none" stroke="#56d8a9" stroke-width="2" d="M282,-108C282,-108 220,-108 220,-108 214,-108 208,-102 208,-96 208,-96 208,-84 208,-84 208,-78 214,-72 220,-72 220,-72 282,-72 282,-72 288,-72 294,-78 294,-84 294,-84 294,-96 294,-96 294,-102 288,-108 282,-108"/>
<text text-anchor="middle" x="251" y="-93" font-family="sans" font-size="10.00">get_tmf</text>
<text text-anchor="middle" x="251" y="-82" font-family="sans" font-size="10.00">area: capricho</text>
</g>
<!-- 4&#45;&gt;0 -->
<g id="edge3" class="edge">
<title>4&#45;&gt;0</title>
<path fill="none" stroke="grey" stroke-width="2" d="M238.15,-71.7C231.97,-63.39 224.46,-53.28 217.68,-44.14"/>
<polygon fill="grey" stroke="grey" stroke-width="2" points="220.48,-42.04 211.71,-36.1 214.86,-46.22 220.48,-42.04"/>
</g>
<!-- 5 -->
<g id="node6" class="node">
<title>5</title>
<path fill="none" stroke="#afd856" stroke-width="2" d="M386,-108C386,-108 324,-108 324,-108 318,-108 312,-102 312,-96 312,-96 312,-84 312,-84 312,-78 318,-72 324,-72 324,-72 386,-72 386,-72 392,-72 398,-78 398,-84 398,-84 398,-96 398,-96 398,-102 392,-108 386,-108"/>
<text text-anchor="middle" x="355" y="-93" font-family="sans" font-size="10.00">get_modis</text>
<text text-anchor="middle" x="355" y="-82" font-family="sans" font-size="10.00">area: capricho</text>
</g>
<!-- 5&#45;&gt;0 -->
<g id="edge4" class="edge">
<title>5&#45;&gt;0</title>
<path fill="none" stroke="grey" stroke-width="2" d="M316.84,-71.88C291.99,-60.73 259.78,-46.27 235.31,-35.29"/>
<polygon fill="grey" stroke="grey" stroke-width="2" points="236.57,-32.02 226.01,-31.12 233.7,-38.41 236.57,-32.02"/>
</g>
</g>
</svg>
